<?xml version="1.0" encoding="utf-8"?>
<!-- Generator: Adobe Illustrator 16.0.0, SVG Export Plug-In . SVG Version: 6.00 Build 0)  -->
<!DOCTYPE svg PUBLIC "-//W3C//DTD SVG 1.1//EN" "http://www.w3.org/Graphics/SVG/1.1/DTD/svg11.dtd">
<svg version="1.1" id="Layer_1" xmlns="http://www.w3.org/2000/svg" xmlns:xlink="http://www.w3.org/1999/xlink" x="0px" y="0px"
	 width="100px" height="100px" viewBox="0 0 100 100" enable-background="new 0 0 100 100" xml:space="preserve">
<g id="Layer_1_1_" display="none">
	<g display="inline">
		<line fill="none" stroke="#A9CCDB" stroke-width="0.25" stroke-miterlimit="10" x1="0.001" y1="-0.001" x2="100" y2="-0.001"/>
		<line fill="none" stroke="#A9CCDB" stroke-width="0.25" stroke-miterlimit="10" x1="0.001" y1="9.999" x2="100" y2="9.999"/>
		<line fill="none" stroke="#A9CCDB" stroke-width="0.25" stroke-miterlimit="10" x1="0.001" y1="19.999" x2="100" y2="19.999"/>
		<line fill="none" stroke="#A9CCDB" stroke-width="0.25" stroke-miterlimit="10" x1="0.001" y1="29.999" x2="100" y2="29.999"/>
		<line fill="none" stroke="#A9CCDB" stroke-width="0.25" stroke-miterlimit="10" x1="0.001" y1="39.999" x2="100" y2="39.999"/>
		<line fill="none" stroke="#A9CCDB" stroke-width="0.25" stroke-miterlimit="10" x1="0.001" y1="49.999" x2="100" y2="49.999"/>
		<line fill="none" stroke="#A9CCDB" stroke-width="0.25" stroke-miterlimit="10" x1="0.001" y1="59.998" x2="100" y2="59.998"/>
		<line fill="none" stroke="#A9CCDB" stroke-width="0.25" stroke-miterlimit="10" x1="0.001" y1="69.998" x2="100" y2="69.998"/>
		<line fill="none" stroke="#FF0000" stroke-width="0.25" stroke-miterlimit="10" x1="0.001" y1="80" x2="100" y2="80"/>
		<line fill="none" stroke="#A9CCDB" stroke-width="0.25" stroke-miterlimit="10" x1="0.001" y1="90" x2="100" y2="90"/>
		<line fill="none" stroke="#A9CCDB" stroke-width="0.25" stroke-miterlimit="10" x1="0" y1="-0.001" x2="0" y2="100"/>
		<line fill="none" stroke="#A9CCDB" stroke-width="0.25" stroke-miterlimit="10" x1="10" y1="-0.001" x2="10" y2="100"/>
		<line fill="none" stroke="#A9CCDB" stroke-width="0.25" stroke-miterlimit="10" x1="20.001" y1="-0.001" x2="20.001" y2="100"/>
		<line fill="none" stroke="#A9CCDB" stroke-width="0.25" stroke-miterlimit="10" x1="30" y1="-0.001" x2="30" y2="100"/>
		<line fill="none" stroke="#A9CCDB" stroke-width="0.25" stroke-miterlimit="10" x1="40" y1="-0.001" x2="40" y2="100"/>
		<line fill="none" stroke="#A9CCDB" stroke-width="0.25" stroke-miterlimit="10" x1="50" y1="-0.001" x2="50" y2="100"/>
		<line fill="none" stroke="#A9CCDB" stroke-width="0.25" stroke-miterlimit="10" x1="60" y1="-0.001" x2="60" y2="100"/>
		<line fill="none" stroke="#A9CCDB" stroke-width="0.25" stroke-miterlimit="10" x1="70" y1="-0.001" x2="70" y2="100"/>
		<line fill="none" stroke="#A9CCDB" stroke-width="0.25" stroke-miterlimit="10" x1="80" y1="-0.001" x2="80" y2="100"/>
		<line fill="none" stroke="#A9CCDB" stroke-width="0.25" stroke-miterlimit="10" x1="90" y1="-0.001" x2="90" y2="100"/>
		<text transform="matrix(1 0 0 1 5.2231 106.498)" font-family="'MyriadPro-Regular'" font-size="6">Hide these Guidelines before saving</text>
		<text transform="matrix(1 0 0 1 -23.2769 81.166)" font-family="'MyriadPro-Regular'" font-size="6">Baseline</text>
	</g>
</g>
<g>
	<path fill="#231F20" d="M41.979,24.246c0.482-0.072,1.804-0.406,1.584-3.35c-0.22-2.943-2.216-3.218-2.722-3.129
		c-0.408,0.075-1.769,0.328-1.769,3.463C39.072,24.355,41.506,24.319,41.979,24.246z"/>
	<path fill="#231F20" d="M54.49,24.539c0.925-0.072,2.283-1.397,2.245-3.717c-0.033-2.314-1.919-3.598-3.272-3.458
		c-0.699,0.072-2.244,0.294-2.136,3.677C51.438,24.427,53.572,24.611,54.49,24.539z"/>
	<path fill="#231F20" d="M89.447,79.912c-0.985-0.504-1.924-0.98-2.467-1.76c-0.688-0.994-1.118-2.532-1.503-3.885
		c-0.546-1.949-1.019-3.631-2.312-4.085c-0.162-0.056-0.34-0.089-0.539-0.104c0.89-3.963,2.172-11.578-2.311-19.746
		C75.689,41.87,70.31,36.571,67.664,30.537c-2.648-6.034-0.37-18.328-5.446-25.025c-5.076-6.691-12.801-5.733-18.25-4.923
		c-5.441,0.807-8.095,7.794-8.24,13.096c-0.15,5.302,1.028,15.159,1.028,17.515c0,2.354-1.986,5.151-4.559,8.017
		c-2.581,2.874-5.889,8.173-6.479,11.559c-0.587,3.384-2.94,6.99-4.781,10.521c-1.743,3.344-2.164,5.63-1.643,7.303
		c-0.896,0.747-1.284,1.728-1.582,2.474c-0.181,0.462-0.356,0.897-0.565,1.097c-0.223,0.162-1.206,0.178-1.852,0.187
		c-1.83,0.031-4.333,0.07-5.614,2.167c-1.147,1.873-0.671,4.155-0.248,6.168c0.278,1.336,0.542,2.604,0.336,3.575
		c-0.226,1.069-0.715,1.762-1.238,2.497c-0.685,0.958-1.457,2.05-1.356,3.808c0.17,2.954,5.112,3.813,9.885,4.636
		c0.863,0.147,1.677,0.289,2.425,0.44c2.005,0.39,4.202,1.211,6.324,1.998c2.596,0.97,5.052,1.884,7.304,2.134
		c0.248,0.027,0.497,0.041,0.744,0.041c4.124,0,6.284-3.789,6.373-3.945l0.096-0.167l0.002-0.05c1.54-0.549,4.372-1.105,9.602-1.242
		c6.24-0.169,9.975,0.661,12.037,1.412c0.469,1.47,1.451,2.692,3.277,3.38c1.39,0.517,2.918,0.794,4.428,0.794
		c2.862,0,5.332-1.01,6.939-2.849c2.253-2.578,4.48-4.413,7.699-6.346c0.799-0.479,1.76-0.886,2.778-1.313
		c2.627-1.112,5.608-2.369,5.74-5.262C92.947,81.702,91.006,80.711,89.447,79.912z M41.027,15.227
		c2.536,0.078,3.461,2.798,3.386,4.679c-0.036,0.827-0.12,1.943-0.406,2.926c0.768-0.337,1.523-0.555,2.208-0.607
		c0.833-0.069,2.495,0.27,4.339,0.824c-0.541-1.114-0.894-2.412-0.955-3.809c-0.182-4.338,2.726-4.413,3.497-4.561
		c2.024-0.384,3.862,0.955,4.416,2.907c0.415,1.481,0.474,5.87-0.66,7.992c1.215,0.674,2.02,1.339,2.02,1.868
		c0,1.88-7.836,8.059-12.804,8.131c-3.784,0.056-6.279-3.397-7.293-5.772c0.924,0.936,2.977,2.506,6.399,2.696
		c4.904,0.267,10.791-4.881,10.791-4.881s-6.989,3.772-10.522,3.898c-3.236,0.114-6.494-2.264-7.015-2.668
		c-0.095-0.325-0.15-0.609-0.162-0.813c-0.033-0.735,0.944-1.952,2.322-3.083c-1.742-0.439-2.692-1.979-2.726-4.497
		C37.833,18.433,38.484,15.155,41.027,15.227z M38.337,95.021c-0.384,0.596-1.946,2.734-4.48,2.734c-0.17,0-0.346-0.008-0.516-0.028
		c-1.996-0.221-4.338-1.092-6.814-2.01c-2.197-0.822-4.471-1.668-6.646-2.096c-0.774-0.157-1.595-0.297-2.467-0.447
		c-2.085-0.362-4.241-0.732-5.895-1.269c-2.081-0.684-2.278-1.284-2.287-1.455c-0.061-1.034,0.379-1.646,0.975-2.497
		c0.565-0.791,1.267-1.776,1.58-3.267c0.295-1.393-0.025-2.931-0.34-4.419c-0.373-1.797-0.725-3.494-0.009-4.676
		c0.638-1.044,2.02-1.145,3.888-1.175c1.325-0.019,2.473-0.039,3.222-0.743c0.557-0.517,0.824-1.195,1.08-1.846
		c0.438-1.104,0.783-1.972,2.423-2.229c0.245-0.039,0.484-0.061,0.713-0.061c2.199,0,3.514,1.781,4.881,3.939
		c0.44,0.688,1.37,2.007,2.554,3.673c2.779,3.933,7.435,10.509,7.919,12.306C38.691,91.579,38.426,94.272,38.337,95.021z
		 M62.855,80.283c0.017,0.227,0.027,0.455,0.041,0.682c-2.52,4.347-10.536,7.474-14.955,8c-3.353,0.401-6.636-0.66-8.396-1.381
		c-0.493-0.978-1.259-2.239-2.203-3.687c1.37-0.073,3.37-0.876,3.313-3.322c-0.072-3.311-9.197-8.459-11.33-10.818
		c-2.136-2.355-0.443-11.035,1.175-14.493c1.622-3.459,3.901-8.095,5.296-12.288c1.4-4.196,3.901-9.57,3.901-9.57
		s3.019,3.386,6.257,3.238c5.372,0.148,11.556-5.594,11.556-5.594s4.19,9.492,4.929,12.438s2.429,3.901,4.559,8.537
		c2.138,4.637,1.621,9.638,1.551,16.632c-0.003,0.227,0,0.443,0.002,0.658c-0.807-0.259-1.598-0.418-2.313-0.418
		c-0.563,0-1.063,0.097-1.498,0.289C62.446,70.204,62.507,74.24,62.855,80.283z M90.773,84.134c-0.07,1.486-1.821,2.337-4.489,3.458
		c-1.038,0.445-2.111,0.895-3.034,1.445c-3.414,2.049-5.787,4.009-8.192,6.758c-1.212,1.381-3.122,2.146-5.386,2.146
		c-1.245,0-2.562-0.242-3.703-0.668c-3.086-1.155-2.507-4.929-1.502-9.37c0.234-1.029,0.46-2.008,0.544-2.8
		c0.125-1.173,0.02-2.919-0.098-4.943c-0.12-2.047-0.251-4.364-0.136-6.201c0.166-2.536,0.74-2.862,0.804-2.894
		c0.165-0.069,0.391-0.106,0.657-0.106c0.693,0,1.563,0.238,2.465,0.591c0.567,4.267,2.639,4.718,4.553,5.273
		c1.94,0.563,6.645-1.637,8.551-4.661c0.195-0.024,0.371-0.041,0.519-0.041c0.077,0,0.126,0.005,0.153,0.008
		c0.333,0.266,0.742,1.728,1.02,2.695c0.419,1.513,0.904,3.229,1.793,4.5c0.84,1.211,2.104,1.853,3.225,2.426
		C90.193,82.607,90.823,83.036,90.773,84.134z"/>
</g>
</svg>
