<?xml version="1.0" encoding="utf-8"?>
<!-- Generator: Adobe Illustrator 16.0.0, SVG Export Plug-In . SVG Version: 6.00 Build 0)  -->
<!DOCTYPE svg PUBLIC "-//W3C//DTD SVG 1.1//EN" "http://www.w3.org/Graphics/SVG/1.1/DTD/svg11.dtd">
<svg version="1.1" id="Layer_1" xmlns="http://www.w3.org/2000/svg" xmlns:xlink="http://www.w3.org/1999/xlink" x="0px" y="0px"
	 width="100px" height="100px" viewBox="0 0 100 100" enable-background="new 0 0 100 100" xml:space="preserve">
<g id="Layer_1_1_" display="none">
	<g display="inline">
		<line fill="none" stroke="#A9CCDB" stroke-width="0.25" stroke-miterlimit="10" x1="0.001" y1="-0.001" x2="100" y2="-0.001"/>
		<line fill="none" stroke="#A9CCDB" stroke-width="0.25" stroke-miterlimit="10" x1="0.001" y1="9.999" x2="100" y2="9.999"/>
		<line fill="none" stroke="#A9CCDB" stroke-width="0.25" stroke-miterlimit="10" x1="0.001" y1="19.999" x2="100" y2="19.999"/>
		<line fill="none" stroke="#A9CCDB" stroke-width="0.25" stroke-miterlimit="10" x1="0.001" y1="29.999" x2="100" y2="29.999"/>
		<line fill="none" stroke="#A9CCDB" stroke-width="0.25" stroke-miterlimit="10" x1="0.001" y1="39.999" x2="100" y2="39.999"/>
		<line fill="none" stroke="#A9CCDB" stroke-width="0.25" stroke-miterlimit="10" x1="0.001" y1="49.999" x2="100" y2="49.999"/>
		<line fill="none" stroke="#A9CCDB" stroke-width="0.25" stroke-miterlimit="10" x1="0.001" y1="59.998" x2="100" y2="59.998"/>
		<line fill="none" stroke="#A9CCDB" stroke-width="0.25" stroke-miterlimit="10" x1="0.001" y1="69.998" x2="100" y2="69.998"/>
		<line fill="none" stroke="#FF0000" stroke-width="0.25" stroke-miterlimit="10" x1="0.001" y1="80" x2="100" y2="80"/>
		<line fill="none" stroke="#A9CCDB" stroke-width="0.25" stroke-miterlimit="10" x1="0.001" y1="90" x2="100" y2="90"/>
		<line fill="none" stroke="#A9CCDB" stroke-width="0.25" stroke-miterlimit="10" x1="0" y1="-0.001" x2="0" y2="100"/>
		<line fill="none" stroke="#A9CCDB" stroke-width="0.25" stroke-miterlimit="10" x1="10" y1="-0.001" x2="10" y2="100"/>
		<line fill="none" stroke="#A9CCDB" stroke-width="0.25" stroke-miterlimit="10" x1="20.001" y1="-0.001" x2="20.001" y2="100"/>
		<line fill="none" stroke="#A9CCDB" stroke-width="0.25" stroke-miterlimit="10" x1="30" y1="-0.001" x2="30" y2="100"/>
		<line fill="none" stroke="#A9CCDB" stroke-width="0.25" stroke-miterlimit="10" x1="40" y1="-0.001" x2="40" y2="100"/>
		<line fill="none" stroke="#A9CCDB" stroke-width="0.25" stroke-miterlimit="10" x1="50" y1="-0.001" x2="50" y2="100"/>
		<line fill="none" stroke="#A9CCDB" stroke-width="0.25" stroke-miterlimit="10" x1="60" y1="-0.001" x2="60" y2="100"/>
		<line fill="none" stroke="#A9CCDB" stroke-width="0.25" stroke-miterlimit="10" x1="70" y1="-0.001" x2="70" y2="100"/>
		<line fill="none" stroke="#A9CCDB" stroke-width="0.25" stroke-miterlimit="10" x1="80" y1="-0.001" x2="80" y2="100"/>
		<line fill="none" stroke="#A9CCDB" stroke-width="0.25" stroke-miterlimit="10" x1="90" y1="-0.001" x2="90" y2="100"/>
		<text transform="matrix(1 0 0 1 5.2231 106.498)" font-family="'MyriadPro-Regular'" font-size="6">Hide these Guidelines before saving</text>
		<text transform="matrix(1 0 0 1 -23.2769 81.166)" font-family="'MyriadPro-Regular'" font-size="6">Baseline</text>
	</g>
</g>
<g>
	<path fill="#231F20" d="M64.351,16.601c6.594-7.424,5.509-16.334,5.509-16.334s-8.152,0.18-14.633,7.463
		c-6.482,7.278-5.322,15.573-5.322,15.573S57.764,24.029,64.351,16.601z"/>
	<path fill="#231F20" d="M77.163,52.927c0-12.456,10.815-18.686,10.815-18.686c-2.946-5.217-11.541-10.046-19.265-10.046
		c-7.731,0-14.534,4.734-18.064,4.734c-3.523,0-9.993-4.345-15.883-4.345c-11.883,0-18.93,8.206-21.928,13.95
		c-2.99,5.746-3.713,12.65-3.333,18.689c0.393,6.034,2.178,15.55,7.295,24.921c5.119,9.366,11.907,17.794,18.397,17.794
		c6.497,0,9.151-4.085,16.443-4.085c8.236,0,9.974,3.964,16.93,3.964c3.76,0,7.242-1.111,13.899-10.43
		c6.235-8.716,8.117-16.084,8.117-16.084S77.163,68.381,77.163,52.927z"/>
</g>
</svg>
