<?xml version="1.0" encoding="utf-8"?>
<!-- Generator: Adobe Illustrator 16.0.0, SVG Export Plug-In . SVG Version: 6.00 Build 0)  -->
<!DOCTYPE svg PUBLIC "-//W3C//DTD SVG 1.1//EN" "http://www.w3.org/Graphics/SVG/1.1/DTD/svg11.dtd">
<svg version="1.1" id="Layer_1" xmlns="http://www.w3.org/2000/svg" xmlns:xlink="http://www.w3.org/1999/xlink" x="0px" y="0px"
	 width="100px" height="100px" viewBox="0 0 100 100" enable-background="new 0 0 100 100" xml:space="preserve">
<g id="Layer_1_1_" display="none">
	<g display="inline">
		<line fill="none" stroke="#A9CCDB" stroke-width="0.25" stroke-miterlimit="10" x1="0.001" y1="-0.001" x2="100" y2="-0.001"/>
		<line fill="none" stroke="#A9CCDB" stroke-width="0.25" stroke-miterlimit="10" x1="0.001" y1="9.999" x2="100" y2="9.999"/>
		<line fill="none" stroke="#A9CCDB" stroke-width="0.25" stroke-miterlimit="10" x1="0.001" y1="19.999" x2="100" y2="19.999"/>
		<line fill="none" stroke="#A9CCDB" stroke-width="0.25" stroke-miterlimit="10" x1="0.001" y1="29.999" x2="100" y2="29.999"/>
		<line fill="none" stroke="#A9CCDB" stroke-width="0.25" stroke-miterlimit="10" x1="0.001" y1="39.999" x2="100" y2="39.999"/>
		<line fill="none" stroke="#A9CCDB" stroke-width="0.25" stroke-miterlimit="10" x1="0.001" y1="49.999" x2="100" y2="49.999"/>
		<line fill="none" stroke="#A9CCDB" stroke-width="0.25" stroke-miterlimit="10" x1="0.001" y1="59.998" x2="100" y2="59.998"/>
		<line fill="none" stroke="#A9CCDB" stroke-width="0.25" stroke-miterlimit="10" x1="0.001" y1="69.998" x2="100" y2="69.998"/>
		<line fill="none" stroke="#FF0000" stroke-width="0.25" stroke-miterlimit="10" x1="0.001" y1="80" x2="100" y2="80"/>
		<line fill="none" stroke="#A9CCDB" stroke-width="0.25" stroke-miterlimit="10" x1="0.001" y1="90" x2="100" y2="90"/>
		<line fill="none" stroke="#A9CCDB" stroke-width="0.25" stroke-miterlimit="10" x1="0" y1="-0.001" x2="0" y2="100"/>
		<line fill="none" stroke="#A9CCDB" stroke-width="0.25" stroke-miterlimit="10" x1="10" y1="-0.001" x2="10" y2="100"/>
		<line fill="none" stroke="#A9CCDB" stroke-width="0.25" stroke-miterlimit="10" x1="20.001" y1="-0.001" x2="20.001" y2="100"/>
		<line fill="none" stroke="#A9CCDB" stroke-width="0.25" stroke-miterlimit="10" x1="30" y1="-0.001" x2="30" y2="100"/>
		<line fill="none" stroke="#A9CCDB" stroke-width="0.25" stroke-miterlimit="10" x1="40" y1="-0.001" x2="40" y2="100"/>
		<line fill="none" stroke="#A9CCDB" stroke-width="0.25" stroke-miterlimit="10" x1="50" y1="-0.001" x2="50" y2="100"/>
		<line fill="none" stroke="#A9CCDB" stroke-width="0.25" stroke-miterlimit="10" x1="60" y1="-0.001" x2="60" y2="100"/>
		<line fill="none" stroke="#A9CCDB" stroke-width="0.25" stroke-miterlimit="10" x1="70" y1="-0.001" x2="70" y2="100"/>
		<line fill="none" stroke="#A9CCDB" stroke-width="0.25" stroke-miterlimit="10" x1="80" y1="-0.001" x2="80" y2="100"/>
		<line fill="none" stroke="#A9CCDB" stroke-width="0.25" stroke-miterlimit="10" x1="90" y1="-0.001" x2="90" y2="100"/>
		<text transform="matrix(1 0 0 1 5.2231 106.498)" font-family="'MyriadPro-Regular'" font-size="6">Hide these Guidelines before saving</text>
		<text transform="matrix(1 0 0 1 -23.2769 81.166)" font-family="'MyriadPro-Regular'" font-size="6">Baseline</text>
	</g>
</g>
<g>
	<polygon fill="#231F20" points="4.794,48.37 37.833,47.997 37.833,11.849 4.794,18.441 	"/>
	<polygon fill="#231F20" points="42.313,10.977 42.313,47.878 95.206,47.314 95.206,0.271 	"/>
	<polygon fill="#231F20" points="4.794,81.848 37.833,88.385 37.833,52.289 4.794,51.858 	"/>
	<polygon fill="#231F20" points="42.313,89.252 95.206,99.794 95.206,52.853 42.313,52.289 	"/>
</g>
</svg>
